# xmcd
#
# Track frame offsets: 
#        150
#        10738
#        22700
#        35220
#        47670
#        61488
#        73578
#        87200
#        99323
#        112485
#        122388
#        133583
#        146138
#        159438
#        168525
#        182918
#        193780
#        212948
#
# Disc length: 2995 seconds
#
# Revision: 0
# Processed by: cddbd v1.4PL0 Copyright (c) Steve Scherf et al.
# Submitted via: ExactAudioCopy v0.90b3
#
DISCID=040bb112
DTITLE=Dolly Parton - 18 Greatest Hits of Dolly Parton
DYEAR=1900
DGENRE=Country
TTITLE0=Love Is Like A Butterfly
TTITLE1=Jolene
TTITLE2=In The Good Old Days
TTITLE3=Mama Say A Prayer
TTITLE4=Coat Of Many Colours
TTITLE5=Bargain Store, The
TTITLE6=My Tennessee Mountain Home
TTITLE7=Touch Your Woman
TTITLE8=I Will Always Love You
TTITLE9=Traveling Man
TTITLE10=Just The Way I Am
TTITLE11=In The Ghetto
TTITLE12=Carroll County Accident, The
TTITLE13=ALways A First Time
TTITLE14=Harper Valley P.T.A., The
TTITLE15=All I Can Do
TTITLE16=Boulder To Birmingham
TTITLE17=Jeannie's Afraid Of The Dark
EXTD=
EXTT0=
EXTT1=
EXTT2=
EXTT3=
EXTT4=
EXTT5=
EXTT6=
EXTT7=
EXTT8=
EXTT9=
EXTT10=
EXTT11=
EXTT12=
EXTT13=
EXTT14=
EXTT15=
EXTT16=
EXTT17=
PLAYORDER=
